# xmcd
#
# Track frame offsets:
#	150
#	15655
#	33638
#	51775
#	68858
#	84930
#	105645
#	122070
#	140845
#	157250
#	175593
#	190550
#
# Disc length: 2842 seconds
#
# Revision: 2
# Processed by: cddbd v1.5.2PL0 Copyright (c) Steve Scherf et al.
# Submitted via: EZCDAudioConverter 6.0.5.1
#
DISCID=9e0b180c
DTITLE=Exile - Justice
DYEAR=1991
DGENRE=Country
TTITLE0=Even Now
TTITLE1=One Too Many Times
TTITLE2=One More Reason
TTITLE3=Dreams Die Hard
TTITLE4=What You See
TTITLE5=(For You, For Me) Forever
TTITLE6=Shot In The Dark
TTITLE7=Somebody's Telling Her Lies
TTITLE8=All In Good Time
TTITLE9=Nothing At All
TTITLE10=The Invisible Man
TTITLE11=If There's Any Justice
EXTD=
EXTT0=
EXTT1=
EXTT2=
EXTT3=
EXTT4=
EXTT5=
EXTT6=
EXTT7=
EXTT8=
EXTT9=
EXTT10=
EXTT11=
PLAYORDER=
